<?xml version="1.0" encoding="utf-8"?>
<!-- Generator: Adobe Illustrator 23.0.3, SVG Export Plug-In . SVG Version: 6.00 Build 0)  -->
<svg version="1.1" id="Layer_1" xmlns="http://www.w3.org/2000/svg" xmlns:xlink="http://www.w3.org/1999/xlink" x="0px" y="0px"
	 viewBox="0 0 612 612" style="enable-background:new 0 0 612 612;" xml:space="preserve">
<style type="text/css">
	.st0{fill:#FFFFFF;}
</style>
<g>
	<path d="M574.3,574.7H135.8c-54.1,0-98.1-44-98.1-98.1L37.4,37.8h439c54.1,0,98.1,44,98.1,98.1L574.3,574.7z"/>
	<path class="st0" d="M109.1,349.5l27.4-38.5c16.7,17.5,42.8,32.1,75.5,32.1c27.8,0,41.3-12.8,41.3-26.4
		c0-42.1-136.8-13.2-136.8-102.6c0-39.6,34.2-72.3,90.2-72.3c37.8,0,69.1,11.4,92.6,33.1l-28.1,37.1c-19.2-17.8-44.9-26-69.1-26
		c-21.7,0-33.9,9.6-33.9,23.9c0,37.8,136.4,12.5,136.4,101.2c0,43.5-31,76.3-95.1,76.3C164,387.2,131.2,371.9,109.1,349.5"/>
	<polygon class="st0" points="328.4,383 328.4,145.3 496.6,145.3 496.6,189.8 379,189.8 379,240.1 494.1,240.1 494.1,284.6 
		379,284.6 379,338.4 496.6,338.4 496.6,383 	"/>
	<path class="st0" d="M145.1,449.9L145.1,449.9c-2,4-6.2,6.6-10.7,6.6c-8,0-14-6.3-14-14.6c0-4.1,1.4-7.7,4-10.4
		c2.6-2.7,6.1-4.2,10-4.2c4.5,0,8.7,2.6,10.7,6.6l0,0l9.4-4.6l0.1,0l0-0.1c-1.9-3.5-4.5-6.4-7.6-8.5c-3.6-2.4-7.8-3.6-12.5-3.6
		c-7.1,0-13.6,2.4-18.2,6.8c-4.7,4.5-7.3,10.8-7.3,17.8c0,14.3,10.7,24.6,25.5,24.6c11.9,0,17.8-7.6,20.2-12.1l0-0.1L145.1,449.9
		L145.1,449.9z M142.2,465.2C142.2,465.2,142.1,465.2,142.2,465.2C142.1,465.2,142.2,465.2,142.2,465.2 M145.3,463.8
		c0,0-0.1,0.1-0.1,0.1C145.3,463.9,145.3,463.9,145.3,463.8"/>
	<polygon class="st0" points="195.4,436.5 173.4,436.5 173.4,418.4 162.1,418.4 162.1,465.6 173.4,465.6 173.4,446.4 195.4,446.4 
		195.4,465.6 206.7,465.6 206.7,418.4 195.4,418.4 	"/>
	<path class="st0" d="M258.3,433.9c0-4.3-1.5-8.1-4.3-10.9c-3-3-7.2-4.5-12.1-4.5h-23.6v47.2h11.3v-16.2h7l9.2,16.1l0,0h12.9
		l-11.1-17.3C252.6,447.2,258.3,442.8,258.3,433.9 M229.6,428.4h11c3.8,0,6.3,2.2,6.3,5.5c0,3.5-2.4,5.6-6.3,5.6h-11V428.4z"/>
	<rect x="268" y="418.4" class="st0" width="11.3" height="47.2"/>
	<path class="st0" d="M326.1,445.5c-0.3-0.6-0.6-1.1-1-1.7c-0.2-0.2-0.4-0.5-0.6-0.7c-0.4-0.5-0.8-0.9-1.3-1.3
		c-0.2-0.2-0.5-0.4-0.7-0.6c-0.4-0.3-0.8-0.7-1.3-1c-3.6-2.2-8.2-3.1-12.2-4c-3.7-0.8-6.8-1.5-8.1-2.8c0,0,0-0.1-0.1-0.1
		c-0.4-0.5-0.7-1-0.7-1.6c0-2.8,2.8-4.6,7.1-4.6c5,0,10.5,2.1,13.9,5.2l0,0l5.3-8.2l0,0l0,0c-4.9-4.4-11.5-6.8-19-6.8
		c-5.5,0-10.2,1.5-13.7,4.4c-3.3,2.7-5.1,6.4-5.1,10.3c0,1,0.2,1.9,0.3,2.8c0,0.1,0,0.2,0,0.3c0.2,0.7,0.4,1.4,0.7,2
		c0.1,0.2,0.2,0.5,0.3,0.7c0.3,0.6,0.7,1.2,1.1,1.7c0.1,0.2,0.3,0.3,0.4,0.5c0.5,0.5,0.9,1,1.5,1.5c0,0,0.1,0.1,0.1,0.1
		c3.6,2.9,8.8,4.1,13.4,5.1c5.1,1.1,9.5,2.1,9.5,5.1c0,3.2-3,5-8.3,5c-6.3,0-12.3-3.1-15.4-6.1l-0.1-0.1l-5.1,8.8l0,0l0,0
		c4.5,4.5,12.1,7.1,20.2,7.1c12.6,0,20.1-5.7,20.1-15.2c0-2-0.4-3.7-1.1-5.3C326.3,445.9,326.2,445.7,326.1,445.5 M325.8,445
		C325.8,445,325.8,444.9,325.8,445C325.8,444.9,325.8,445,325.8,445 M323.9,442.4C323.9,442.4,323.9,442.4,323.9,442.4
		C323.9,442.4,323.9,442.4,323.9,442.4 M290.3,438.5c0,0.1,0.1,0.1,0.1,0.1C290.4,438.6,290.4,438.5,290.3,438.5 M292.2,440.8
		C292.2,440.8,292.2,440.9,292.2,440.8C292.2,440.9,292.2,440.8,292.2,440.8"/>
	<polygon class="st0" points="332.1,428.4 345.3,428.4 345.3,465.6 356.6,465.6 356.6,428.4 369.9,428.4 369.9,418.4 332.1,418.4 	
		"/>
	<rect x="377.9" y="418.4" class="st0" width="11.3" height="47.2"/>
	<path class="st0" d="M427.6,418.4h-13.7L395,465.5l0,0.1h12.8l3-7.8h20.2l3,7.8l0,0h12.7L427.6,418.4L427.6,418.4z M427.6,447.8
		h-13.6l6.9-17.7L427.6,447.8z"/>
	<polygon class="st0" points="485.5,418.4 485.5,446.7 464.5,418.4 464.5,418.4 452.4,418.4 452.4,465.6 463.7,465.6 463.7,436.2 
		485.3,465.5 485.3,465.6 496.8,465.6 496.8,418.4 	"/>
</g>
</svg>
