<?xml version="1.0" encoding="utf-8"?>
<!-- Generator: Adobe Illustrator 23.0.3, SVG Export Plug-In . SVG Version: 6.00 Build 0)  -->
<svg version="1.1" id="Layer_1" xmlns="http://www.w3.org/2000/svg" xmlns:xlink="http://www.w3.org/1999/xlink" x="0px" y="0px"
	 viewBox="0 0 612 612" style="enable-background:new 0 0 612 612;" xml:space="preserve">
<g>
	<path d="M103.9,349.9l27.5-38.5c16.8,17.5,42.8,32.1,75.7,32.1c27.8,0,41.4-12.8,41.4-26.4c0-42.1-137-13.2-137-102.8
		c0-39.6,34.3-72.4,90.3-72.4c37.8,0,69.2,11.4,92.7,33.2l-28.2,37.1c-19.2-17.8-44.9-26-69.2-26c-21.8,0-33.9,9.6-33.9,23.9
		c0,37.8,136.6,12.5,136.6,101.3c0,43.5-31,76.4-95.2,76.4C158.8,387.7,126,372.4,103.9,349.9"/>
	<polygon points="323.4,383.4 323.4,145.4 491.8,145.4 491.8,190 374.1,190 374.1,240.3 489.3,240.3 489.3,284.9 374.1,284.9 
		374.1,338.8 491.8,338.8 491.8,383.4 	"/>
	<path d="M569.6,575.4H130.5c-54.2,0-98.2-44.1-98.2-98.2L32.1,37.8h439.6c54.2,0,98.2,44.1,98.2,98.3L569.6,575.4z M53,58.7
		l0.2,418.5c0,42.6,34.7,77.3,77.3,77.3h418.2L549,136c0-42.6-34.7-77.3-77.3-77.3H53z"/>
	<path d="M139.9,450.5L139.9,450.5c-2,4-6.2,6.6-10.7,6.6c-8,0-14-6.3-14-14.6c0-4.1,1.4-7.8,4-10.4c2.6-2.7,6.1-4.2,10.1-4.2
		c4.5,0,8.7,2.6,10.7,6.6l0,0l9.4-4.6l0.1,0l0-0.1c-1.9-3.5-4.5-6.4-7.6-8.5c-3.6-2.4-7.8-3.6-12.5-3.6c-7.1,0-13.6,2.4-18.2,6.9
		c-4.7,4.5-7.3,10.8-7.3,17.8c0,14.3,10.7,24.6,25.5,24.6c11.9,0,17.8-7.6,20.2-12.1l0-0.1L139.9,450.5L139.9,450.5z M136.9,465.8
		C136.9,465.8,136.9,465.8,136.9,465.8C136.9,465.8,136.9,465.8,136.9,465.8 M140.1,464.4c0,0-0.1,0.1-0.1,0.1
		C140,464.5,140.1,464.4,140.1,464.4"/>
	<polygon points="190.3,437 168.2,437 168.2,418.9 156.9,418.9 156.9,466.2 168.2,466.2 168.2,447 190.3,447 190.3,466.2 
		201.6,466.2 201.6,418.9 190.3,418.9 	"/>
	<path d="M253.3,434.4c0-4.3-1.5-8.1-4.3-10.9c-3-3-7.2-4.6-12.1-4.6h-23.6v47.3h11.3V450h7l9.2,16.2l0,0h13l-11.1-17.3
		C247.6,447.8,253.3,443.4,253.3,434.4 M224.5,428.9h11c3.8,0,6.3,2.2,6.3,5.5c0,3.5-2.4,5.6-6.3,5.6h-11V428.9z"/>
	<rect x="262.9" y="418.9" width="11.3" height="47.3"/>
	<path d="M321.2,446.1c-0.3-0.6-0.6-1.1-1-1.7c-0.2-0.2-0.4-0.5-0.6-0.7c-0.4-0.5-0.8-0.9-1.3-1.3c-0.2-0.2-0.5-0.4-0.7-0.6
		c-0.4-0.3-0.8-0.7-1.3-1c-3.6-2.2-8.2-3.2-12.2-4c-3.7-0.8-6.8-1.5-8.2-2.8c0,0,0-0.1-0.1-0.1c-0.4-0.5-0.7-1-0.7-1.6
		c0-2.8,2.8-4.6,7.1-4.6c5,0,10.6,2.1,13.9,5.2l0.1,0l5.3-8.2l0,0l0,0c-4.9-4.4-11.5-6.8-19-6.8c-5.5,0-10.2,1.5-13.7,4.4
		c-3.3,2.7-5.1,6.4-5.1,10.4c0,1,0.2,1.9,0.3,2.8c0,0.1,0,0.2,0,0.3c0.2,0.7,0.4,1.4,0.7,2c0.1,0.2,0.2,0.5,0.3,0.7
		c0.3,0.6,0.7,1.2,1.1,1.7c0.1,0.2,0.3,0.3,0.4,0.5c0.5,0.5,0.9,1,1.5,1.5c0,0,0.1,0.1,0.1,0.1c3.6,2.9,8.8,4.1,13.4,5.1
		c5.1,1.1,9.5,2.1,9.5,5.2c0,3.2-3,5-8.3,5c-6.3,0-12.3-3.1-15.4-6.1l-0.1-0.1l-5.1,8.8l0,0l0,0c4.5,4.5,12.1,7.1,20.2,7.1
		c12.6,0,20.2-5.7,20.2-15.2c0-2-0.4-3.7-1.1-5.3C321.3,446.5,321.3,446.3,321.2,446.1 M320.8,445.6
		C320.8,445.5,320.8,445.5,320.8,445.6C320.8,445.5,320.8,445.5,320.8,445.6 M318.9,443C318.9,443,318.9,443,318.9,443
		C318.9,443,318.9,443,318.9,443 M285.3,439c0,0.1,0.1,0.1,0.1,0.1C285.4,439.1,285.3,439.1,285.3,439 M287.2,441.4
		C287.2,441.4,287.2,441.4,287.2,441.4C287.2,441.4,287.2,441.4,287.2,441.4"/>
	<polygon points="327.1,428.9 340.4,428.9 340.4,466.2 351.7,466.2 351.7,428.9 365,428.9 365,418.9 327.1,418.9 	"/>
	<rect x="373" y="418.9" width="11.3" height="47.3"/>
	<path d="M422.8,418.9H409l-18.9,47.2l0,0.1h12.8l3-7.8H426l3,7.8l0,0h12.7L422.8,418.9L422.8,418.9z M422.7,448.4h-13.7l6.9-17.8
		L422.7,448.4z"/>
	<polygon points="480.7,418.9 480.7,447.2 459.7,418.9 459.7,418.9 447.6,418.9 447.6,466.2 458.9,466.2 458.9,436.7 480.5,466.1 
		480.5,466.2 492.1,466.2 492.1,418.9 	"/>
</g>
</svg>
